<svg id="Layer_1" data-name="Layer 1" xmlns="http://www.w3.org/2000/svg" width="114" height="179" viewBox="0 0 114 179"><defs><style>.cls-1{fill:#6c7b95;}</style></defs><title>arrow_up</title><rect class="cls-1" x="41" y="65.5" width="31" height="112" rx="3.56"/><path class="cls-1" d="M2.5,79.63V62.8a1.3,1.3,0,0,1,1.3-1.3H110.2a1.3,1.3,0,0,1,1.3,1.3V79.63a4.87,4.87,0,0,1-4.87,4.87H7.37A4.87,4.87,0,0,1,2.5,79.63Z"/><path class="cls-1" d="M39.69,11.32,3,61.86a.4.4,0,0,0,.32.64H110.71a.4.4,0,0,0,.32-.64L74.31,11.32A21.4,21.4,0,0,0,39.69,11.32Z"/></svg>
