<svg id="Layer_1" data-name="Layer 1" xmlns="http://www.w3.org/2000/svg" width="170" height="170" viewBox="0 0 170 170"><defs><style>.cls-1{fill:#6c7b95;}.cls-2{fill:none;stroke:#6c7b95;stroke-miterlimit:10;stroke-width:3px;}</style></defs><title>facebook</title><path class="cls-1" d="M111.62,47c-1.9-.49-3.87-.89-5.89-1.21a38.24,38.24,0,0,0-5.75-.47,17.85,17.85,0,0,0-5.2.69,9,9,0,0,0-3.85,2.31,10.3,10.3,0,0,0-2.38,4.17,20.91,20.91,0,0,0-.8,6.23V68h19.7V82.25H87.75v56.69H70.39V82.25h-12V68h12V59.55a35.41,35.41,0,0,1,2.09-12.86,23.53,23.53,0,0,1,5.82-8.86,23.19,23.19,0,0,1,8.79-5.12,35.2,35.2,0,0,1,11-1.65,43.57,43.57,0,0,1,7.29.62,44.14,44.14,0,0,1,6.26,1.5Z"/><circle class="cls-2" cx="85" cy="85" r="81.39"/></svg>
