<svg id="l" data-name="Layer 1" xmlns="http://www.w3.org/2000/svg" width="170" height="170" viewBox="0 0 170 170">
    <defs>
        <style>
            .cls-1 {
                fill: none;
                stroke: #6c7b95;
                stroke-miterlimit: 10;
                stroke-width: 3px;
            }

            .cls-2 {
                fill: #6c7b95;
            }

        </style>
    </defs>
    <title>linkedin</title>
    <circle class="cls-1" cx="85" cy="85" r="81.39" />
    <path class="cls-2" d="M56,39.59C56,45.34,51.71,50,44.72,50,38.15,50,33.9,45.34,33.9,39.59S38.28,29.18,45,29.18,55.82,33.7,56,39.59ZM34.45,125.21v-67H55.27v67Z" />
    <path class="cls-2" d="M72,79.59c0-8.36-.27-15.34-.54-21.37H89.52l1,9.32h.41a24,24,0,0,1,20.68-10.83c13.7,0,24,9.18,24,28.91v39.59H114.73V88.08c0-8.63-3-14.52-10.55-14.52-5.76,0-9.18,4-10.69,7.81a15,15,0,0,0-.68,5.21v38.63H72Z" />
</svg>
