<svg xmlns="http://www.w3.org/2000/svg" width="403.31" height="74.63" viewBox="0 0 403.31 74.63"><defs><style>.cls-1{fill:lime;fill-rule:evenodd;}.cls-2{fill:#fff;}</style></defs><title>Asset 2</title><g id="Layer_2" data-name="Layer 2"><g id="Lag_1" data-name="Lag 1"><path class="cls-1" d="M54.12,47.8A27.06,27.06,0,1,1,27.28,20.52,27.06,27.06,0,0,1,54.12,47.8ZM31.22,35.09a4.23,4.23,0,1,1-5.62-4V28.93H22.93V26.1H25.6V23.42h2.83V26.1h2.68v2.83H28.43v2.2A4.22,4.22,0,0,1,31.22,35.09Zm-2.52,0a1.71,1.71,0,1,0-1.7,1.7A1.7,1.7,0,0,0,28.7,35.09Zm11.24,28.5H14.17v3H39.94Zm-.06-2.33H14.09v0H14c-3.14-2.79-8-8.54-7.74-13.6a6.21,6.21,0,0,1,4.5-5.9,7.24,7.24,0,0,1,6.15.91,5.43,5.43,0,0,1,2.85-2,6.36,6.36,0,0,1,7.15,2,6.59,6.59,0,0,1,7.14-2.09,5.47,5.47,0,0,1,3,2.08,7.32,7.32,0,0,1,6.28-.9,6.21,6.21,0,0,1,4.43,6C48,52.85,43.06,58.51,39.88,61.26Zm-17.05-3c-3.06-3-6.89-7.36-6.89-11.44,0-.31,0-.62,0-.92-2-1.48-3.05-1.54-4.35-1.19a2.9,2.9,0,0,0-2.23,3.1c-.08,2.53,1.5,6,5.79,10.45ZM35.15,46.84c0-2-.87-3.63-3-3.63a3.56,3.56,0,0,0-3.66,3.42s0,.06,0,.1a3,3,0,0,0,2.18,3.09,20.85,20.85,0,0,1-3.68,4c-.11.1,0,.1-.14,0a18.71,18.71,0,0,1-3.44-4,3.2,3.2,0,0,0,2.26-3.09v0h0a3.43,3.43,0,0,0-.3-1.39h0a2,2,0,0,0-.13-.25.43.43,0,0,1,0-.07l-.1-.16-.16-.23a3.37,3.37,0,0,0-2.38-1.26h-.13a4.18,4.18,0,0,0-1.56.21A2.84,2.84,0,0,0,19,45.9a3.26,3.26,0,0,0-.11.83,3.05,3.05,0,0,0,.05.52c.25,2.67,3,6.31,8.09,10.82C32.42,53.32,35.15,49.54,35.15,46.84Zm9.54,1.09a2.92,2.92,0,0,0-2.19-3.14c-1.3-.36-2.33-.31-4.41,1.17,0,.29,0,.58,0,.88,0,4.08-3.82,8.49-6.88,11.44h7.54C43.11,53.87,44.73,50.45,44.69,47.93Z"/><path class="cls-2" d="M88.74,65.59c1.85,0,3.27-1.09,3.27-2.82V60.69c0-1.73-.92-2.54-3.46-3.69L80.9,53.48c-4.94-2.25-7.85-3.57-7.85-8.25V40.68A7.58,7.58,0,0,1,80.9,33.3H96.46a.94.94,0,0,1,1,.92v4.43a.94.94,0,0,1-1,.92H84.16c-1.86,0-3.28,1.1-3.28,2.83v1.74c0,1.84,1.45,2.3,3.61,3.28l7.12,3.52c5.56,2.54,8.2,4.27,8.2,9v4.73c0,4.1-3.91,7.38-8.29,7.38H73.42a1,1,0,0,1-1-.92V66.51a1,1,0,0,1,1-.92Z"/><path class="cls-2" d="M116.15,65.47a.91.91,0,0,0,.92,1h3.64a1,1,0,0,1,1,1v3.7a1,1,0,0,1-1,1H105.17a1,1,0,0,1-1-1v-3.7a1,1,0,0,1,1-1h2.91a.9.9,0,0,0,.91-1V49.14a.92.92,0,0,0-.91-1h-2a1,1,0,0,1-1-1V43.5a1,1,0,0,1,1-1h9a1,1,0,0,1,1,1Zm-4-34.78a4.37,4.37,0,1,1-4.31,4.37A4.47,4.47,0,0,1,112.15,30.69Z"/><path class="cls-2" d="M209.84,58.63a.9.9,0,0,1-.91,1H192.79v.91c0,3.64,3.09,5.89,7.46,5.89h7.53a1,1,0,0,1,1,1v3.76a1,1,0,0,1-1,1H199c-7.65,0-13.35-4-13.35-11.9V52.61c0-6,2.79-10.68,12.5-10.68,8.32,0,11.72,4.19,11.71,9.29Zm-17.05-5c0,.54.18.84.79.84H202a.9.9,0,0,0,.9-1V52.19c0-2.73-1.15-4.61-5-4.62-4.25,0-5.1,2.07-5.1,4.74Z"/><path class="cls-2" d="M219.15,49.16a.91.91,0,0,0-.91-1h-2a1,1,0,0,1-1-1V43.51a1,1,0,0,1,1-1H231.1a7.54,7.54,0,0,1,7.71,7.59v2.31a1,1,0,0,1-1,1h-4.68a.91.91,0,0,1-.9-1V51c0-1.82-1.4-2.79-3.22-2.79h-1.82a.9.9,0,0,0-.91,1V65.48a.91.91,0,0,0,.91,1h5.58a1,1,0,0,1,1,1v3.71a1,1,0,0,1-1,1H216.29a1,1,0,0,1-1-1v-3.7a1,1,0,0,1,1-1h1.94a.9.9,0,0,0,.91-1Z"/><path class="cls-2" d="M280.32,49.17a.91.91,0,0,0-.91-1h-1.94a1,1,0,0,1-1-1v-3.7a1,1,0,0,1,1-1h14.81A7.54,7.54,0,0,1,300,50.14v2.31a1,1,0,0,1-1,1h-4.68a.91.91,0,0,1-.91-1V51c0-1.82-1.39-2.8-3.21-2.8H288.4a.92.92,0,0,0-.92,1V65.49a.91.91,0,0,0,.92,1H294a1,1,0,0,1,1,1v3.7a1,1,0,0,1-1,1H277.47a1,1,0,0,1-1-1v-3.7a1,1,0,0,1,1-1h1.94a.9.9,0,0,0,.91-1Z"/><path class="cls-2" d="M319,51.23c0-2.24-2.37-3.64-5.46-3.64s-8.38.79-8.81.79-.6-.18-.6-.67V43.64c0-.36,0-.84.67-1a72.77,72.77,0,0,1,8.55-.73c7.17,0,12.81,2.12,12.81,9.35V64.89a1.39,1.39,0,0,0,1.39,1.58h.25a1,1,0,0,1,1,1v3.7a1,1,0,0,1-1,1h-2.18c-3.22,0-4.73-1-5.4-3.28-.12-.36-.3-.48-.48-.48a.56.56,0,0,0-.55.43c-.91,2.3-2.43,3.33-6.25,3.33h-2.49a7.66,7.66,0,0,1-8-7.65V63.19c0-4.49,3.34-7,7.71-7.95L319,53.36Zm-4.62,15.24c4.13,0,4.62-2.31,4.62-6.14v-2L312.2,60a3.29,3.29,0,0,0-2.61,3.22v.61c0,1.63,1.39,2.61,3.22,2.61Z"/><path class="cls-2" d="M362.28,39.47A4.37,4.37,0,1,0,358,35.09,4.48,4.48,0,0,0,362.28,39.47Z"/><path class="cls-2" d="M370.83,66.47h-3.64a.91.91,0,0,1-.91-1v-22a1,1,0,0,0-1-1H344.44a1,1,0,0,1-1-1V41A4.07,4.07,0,0,1,347.54,37h2a1,1,0,0,0,1-1V32.24a.91.91,0,0,0-.91-.91h-3.52c-6,0-9.77,2.37-9.77,8.19v2.12a.92.92,0,0,1-.91.92h-3a1,1,0,0,0-1,1v3.7a1,1,0,0,0,1,1h3a1,1,0,0,1,1,1v22a1,1,0,0,0,1,1h5.22a1,1,0,0,0,1-1v-22a.91.91,0,0,1,.91-.91h13.83a.91.91,0,0,1,.91,1V65.5a.91.91,0,0,1-.91,1H355.3a1,1,0,0,0-1,1v3.7a1,1,0,0,0,1,1h15.54a1,1,0,0,0,1-1v-3.7A1,1,0,0,0,370.83,66.47Z"/><path class="cls-2" d="M142.26,57.16a1.6,1.6,0,0,1-.42-.91,1.54,1.54,0,0,1,.42-.91l8.8-11a1.71,1.71,0,0,0,.43-1c0-.49-.43-.79-1.09-.79H146c-1.46,0-1.88.37-2.91,1.7l-6.62,8.38a5.2,5.2,0,0,0-.35.47h-2.5V37.33a1,1,0,0,0-1-1H127.4a.91.91,0,0,0-.91,1V71.11a.92.92,0,0,0,.91,1h5.28a1,1,0,0,0,1-1V59.39h2.2a10,10,0,0,0,1.32,1.89l7.7,9.83a2.23,2.23,0,0,0,2.19,1h5c.67,0,1.1-.3,1.1-.79a1.76,1.76,0,0,0-.43-1Z"/><path class="cls-2" d="M172.63,57.16a1.5,1.5,0,0,1-.43-.91,1.55,1.55,0,0,1,.43-.91l8.8-11a1.8,1.8,0,0,0,.42-1c0-.49-.42-.79-1.09-.79h-4.37c-1.46,0-1.88.36-2.91,1.7l-6.62,8.37c-.13.16-.24.32-.35.48H164V37.34a1,1,0,0,0-1-1h-5.28a.9.9,0,0,0-.91,1V71.12a.92.92,0,0,0,.91,1H163a1,1,0,0,0,1-1V59.39h2.2a10,10,0,0,0,1.32,1.89l7.7,9.83a2.25,2.25,0,0,0,2.19,1h5c.66,0,1.09-.3,1.09-.79a1.76,1.76,0,0,0-.43-1Z"/><path class="cls-2" d="M402.89,70.3l-10.5-13.11a1.18,1.18,0,0,1,0-1.82l8.8-11a1.78,1.78,0,0,0,.43-1c0-.49-.43-.79-1.1-.79h-4.37c-1.45,0-1.88.37-2.91,1.7l-6.62,8.38c-.12.16-.24.32-.34.48h-2.51V37.05a1,1,0,0,0-1-1h-5.28a.9.9,0,0,0-.91,1V71.14a.91.91,0,0,0,.91,1h5.28a1,1,0,0,0,1-1V59.42H386a11.49,11.49,0,0,0,1.32,1.9L395,71.15a2.23,2.23,0,0,0,2.18,1h5c.67,0,1.09-.3,1.09-.79A1.8,1.8,0,0,0,402.89,70.3Z"/><path class="cls-2" d="M257.29,40.3a.92.92,0,0,0-.93-1H247a1,1,0,0,1-1-1V34.11a1,1,0,0,1,1-1h28a1,1,0,0,1,1,1v4.22a1,1,0,0,1-1,1h-9.34a.92.92,0,0,0-.93,1V71.17a1,1,0,0,1-1,1h-5.59a.92.92,0,0,1-.92-1Z"/><path class="cls-2" d="M101.39,11.78c0-1.15-1.21-1.86-2.78-1.86s-4.28.4-4.5.4-.31-.09-.31-.34V7.9c0-.18,0-.43.34-.49A37.1,37.1,0,0,1,98.51,7c3.66,0,6.54,1.09,6.54,4.78v6.94a.71.71,0,0,0,.71.8h.12a.49.49,0,0,1,.5.5v1.89a.49.49,0,0,1-.5.5h-1.11c-1.64,0-2.42-.5-2.76-1.68a.47.47,0,0,0-.15-.25c-.22,0-.31.06-.37.22-.47,1.18-1.25,1.7-3.2,1.7H97a3.92,3.92,0,0,1-4.1-3.9v-.65c0-2.29,1.71-3.59,3.94-4.06l4.52-1ZM99.6,0a3.13,3.13,0,1,1-3.13,3.13A3.13,3.13,0,0,1,99.6,0ZM99,19.55c2.11,0,2.35-1.18,2.35-3.13v-1l-3.47.87a1.68,1.68,0,0,0-1.33,1.64v.31c0,.84.71,1.33,1.64,1.33ZM99.6,4.46a1.33,1.33,0,1,0-1.34-1.33A1.32,1.32,0,0,0,99.6,4.46Z"/><path class="cls-2" d="M117.5,7.19a.46.46,0,0,0,.46-.5V2.11a.47.47,0,0,1,.47-.5h2.69a.5.5,0,0,1,.5.5V18.16c0,3.41-2.2,4.59-6.91,4.59-4.19,0-6.11-1.52-6.11-4.59V11.62c0-2.88,2.08-4.58,5.77-4.58C115.67,7,116.5,7.19,117.5,7.19Zm-5.24,5.49v5.05c0,1.27.53,2,2.57,2h.5c2.1,0,2.63-.71,2.63-2v-7c0-.38-1.3-.66-2.94-.66C112.6,10.07,112.26,10.82,112.26,12.68Z"/><path class="cls-2" d="M137.25,15.56a.47.47,0,0,1-.47.5h-8.24v.46c0,1.86,1.58,3,3.81,3h3.84a.49.49,0,0,1,.5.49V22a.49.49,0,0,1-.5.49H131.7c-3.9,0-6.82-2.05-6.81-6.07V12.49c0-3.06,1.42-5.45,6.38-5.45,4.24,0,6,2.14,6,4.74ZM128.54,13c0,.28.1.43.4.43h4.28a.45.45,0,0,0,.46-.49v-.69c0-1.39-.58-2.35-2.53-2.35-2.18,0-2.61,1.05-2.61,2.42Z"/><path class="cls-2" d="M141.67,10.45a.47.47,0,0,0-.47-.5h-1.55a.48.48,0,0,1-.49-.49V7.57a.49.49,0,0,1,.49-.5h1.55a.46.46,0,0,0,.47-.49V3.7a.47.47,0,0,1,.46-.5h2.7a.5.5,0,0,1,.5.5V6.58a.46.46,0,0,0,.47.49h2.63a.5.5,0,0,1,.5.5V9.46a.5.5,0,0,1-.5.5h-2.63a.46.46,0,0,0-.47.49v6.76c0,1.73.47,2.07,1.71,2.07h1.42a.47.47,0,0,1,.47.5V21.7a.44.44,0,0,1-.47.46H145c-2.41,0-3.28-1-3.28-3.56Z"/><path class="cls-2" d="M159.05,5.53c0-3,1.92-4.19,5-4.19h1.8a.44.44,0,0,1,.46.47V3.73a.46.46,0,0,1-.46.49h-1.09c-1.54,0-2,.53-2,2.08v.28a.46.46,0,0,0,.46.5h2.48a.49.49,0,0,1,.5.49V9.46a.5.5,0,0,1-.5.5h-2.48a.46.46,0,0,0-.46.5V21.67a.5.5,0,0,1-.5.5h-2.7a.47.47,0,0,1-.46-.5V10.45a.46.46,0,0,0-.46-.49H157a.49.49,0,0,1-.49-.5V7.57a.49.49,0,0,1,.5-.49h1.55a.47.47,0,0,0,.46-.5Z"/><path class="cls-2" d="M167.78,11.35c0-2.6,1.61-4.58,6.44-4.58s6.42,2,6.42,4.59v6.53c0,2.64-1.64,4.59-6.42,4.59s-6.44-1.95-6.44-4.59Zm3.66,6c0,1.43.49,2.3,2.78,2.3s2.76-.87,2.76-2.3V11.94c0-1.39-.52-2.29-2.76-2.29s-2.78.9-2.78,2.29Z"/><path class="cls-2" d="M184.81,10.46a.47.47,0,0,0-.46-.5h-1a.49.49,0,0,1-.5-.49V7.57a.49.49,0,0,1,.5-.49h7.55A3.85,3.85,0,0,1,194.85,11v1.18a.5.5,0,0,1-.5.5H192a.47.47,0,0,1-.47-.5v-.74A1.45,1.45,0,0,0,189.86,10h-.93a.47.47,0,0,0-.47.5v8.33a.47.47,0,0,0,.47.5h2.85a.49.49,0,0,1,.5.49v1.9a.49.49,0,0,1-.5.49h-8.43a.48.48,0,0,1-.49-.49v-1.9a.48.48,0,0,1,.49-.49h1a.47.47,0,0,0,.46-.5Z"/><path class="cls-2" d="M90.52,21.62a1.2,1.2,0,0,1,.15.47c0,.24-.15.37-.43.37h-3c-.34,0-.53-.1-.77-.5l-5-7.44a2,2,0,0,1-.43-1.3V11.11a.5.5,0,0,1,.5-.5h3a1.64,1.64,0,0,0,1.65-1.67V6.18A1.65,1.65,0,0,0,84.5,4.5H79.73a.47.47,0,0,0-.47.5V22a.49.49,0,0,1-.49.5H75.94a.47.47,0,0,1-.46-.5V5A.47.47,0,0,0,75,4.5H74a.49.49,0,0,1-.5-.49V2.12a.5.5,0,0,1,.5-.5H86a3.94,3.94,0,0,1,3.94,4V9.37a3.94,3.94,0,0,1-3.94,4H84.84Z"/></g></g></svg>
